<svg width="33" height="33" viewBox="0 0 33 33" fill="none" xmlns="http://www.w3.org/2000/svg">
    <circle cx="16.5" cy="16.5" r="16.5" fill="#EF5C7C"/>
    <path d="M13.8751 20.1486L10.8389 17.1124C10.6753 16.9487 10.4534 16.8568 10.222 16.8568C9.99063 16.8568 9.76873 16.9487 9.60513 17.1124C9.44152 17.276 9.34961 17.4979 9.34961 17.7292C9.34961 17.8438 9.37217 17.9572 9.41602 18.0631C9.45986 18.1689 9.52412 18.2651 9.60513 18.3461L13.2626 22.0036C13.6039 22.3449 14.1551 22.3449 14.4964 22.0036L23.7539 12.7461C23.9175 12.5825 24.0094 12.3606 24.0094 12.1292C24.0094 11.8979 23.9175 11.676 23.7539 11.5124C23.5903 11.3487 23.3684 11.2568 23.137 11.2568C22.9056 11.2568 22.6837 11.3487 22.5201 11.5124L13.8751 20.1486Z" fill="white" stroke="white" stroke-width="0.5"/>
</svg>
