<svg width="18" height="18" viewBox="0 0 18 18" fill="none" xmlns="http://www.w3.org/2000/svg">
    <path d="M8.28516 0.764613C8.4587 0.361631 9.03007 0.361632 9.20362 0.764614L11.2994 5.63128C11.3718 5.79936 11.5302 5.91447 11.7125 5.93137L16.9886 6.42072C17.4255 6.46124 17.602 7.00464 17.2724 7.29422L13.2916 10.7913C13.1541 10.9121 13.0936 11.0984 13.1338 11.2769L14.2988 16.446C14.3953 16.874 13.933 17.2099 13.5558 16.9858L8.99967 14.2805C8.84231 14.1871 8.64647 14.1871 8.48911 14.2805L3.93302 16.9858C3.55575 17.2099 3.0935 16.874 3.18997 16.446L4.35498 11.2769C4.39522 11.0984 4.33471 10.9121 4.19721 10.7913L0.21638 7.29422C-0.11325 7.00464 0.063313 6.46124 0.500199 6.42072L5.77631 5.93137C5.95854 5.91447 6.11697 5.79936 6.18936 5.63128L8.28516 0.764613Z" fill="#EF5C7C"/>
</svg>
