<svg width="28" height="24" viewBox="0 0 28 24" fill="none" xmlns="http://www.w3.org/2000/svg">
    <path d="M14 2.77066C13.3969 2.77066 12.8185 3.01298 12.392 3.44432C11.9656 3.87565 11.726 4.46067 11.726 5.07066C11.726 5.68066 11.9656 6.26568 12.392 6.69701C12.8185 7.12834 13.3969 7.37066 14 7.37066C14.6031 7.37066 15.1815 7.12834 15.608 6.69701C16.0344 6.26568 16.274 5.68066 16.274 5.07066C16.274 4.46067 16.0344 3.87565 15.608 3.44432C15.1815 3.01298 14.6031 2.77066 14 2.77066ZM9.90678 5.07066C9.90678 3.97267 10.338 2.91964 11.1057 2.14324C11.8733 1.36684 12.9144 0.930664 14 0.930664C15.0856 0.930664 16.1267 1.36684 16.8943 2.14324C17.662 2.91964 18.0932 3.97267 18.0932 5.07066C18.0932 6.16866 17.662 7.22169 16.8943 7.99809C16.1267 8.77449 15.0856 9.21066 14 9.21066C12.9144 9.21066 11.8733 8.77449 11.1057 7.99809C10.338 7.22169 9.90678 6.16866 9.90678 5.07066ZM3.63842 5.53066C3.15593 5.53066 2.69321 5.72452 2.35204 6.06959C2.01087 6.41465 1.81921 6.88267 1.81921 7.37066C1.81921 7.85866 2.01087 8.32667 2.35204 8.67174C2.69321 9.01681 3.15593 9.21066 3.63842 9.21066C4.1209 9.21066 4.58363 9.01681 4.92479 8.67174C5.26596 8.32667 5.45763 7.85866 5.45763 7.37066C5.45763 6.88267 5.26596 6.41465 4.92479 6.06959C4.58363 5.72452 4.1209 5.53066 3.63842 5.53066ZM0 7.37066C0 6.39467 0.383332 5.45864 1.06567 4.76851C1.748 4.07838 2.67345 3.69066 3.63842 3.69066C4.60339 3.69066 5.52883 4.07838 6.21117 4.76851C6.8935 5.45864 7.27684 6.39467 7.27684 7.37066C7.27684 8.34666 6.8935 9.28268 6.21117 9.97282C5.52883 10.663 4.60339 11.0507 3.63842 11.0507C2.67345 11.0507 1.748 10.663 1.06567 9.97282C0.383332 9.28268 0 8.34666 0 7.37066ZM22.5424 7.37066C22.5424 6.88267 22.734 6.41465 23.0752 6.06959C23.4164 5.72452 23.8791 5.53066 24.3616 5.53066C24.8441 5.53066 25.3068 5.72452 25.648 6.06959C25.9891 6.41465 26.1808 6.88267 26.1808 7.37066C26.1808 7.85866 25.9891 8.32667 25.648 8.67174C25.3068 9.01681 24.8441 9.21066 24.3616 9.21066C23.8791 9.21066 23.4164 9.01681 23.0752 8.67174C22.734 8.32667 22.5424 7.85866 22.5424 7.37066ZM24.3616 3.69066C23.3966 3.69066 22.4712 4.07838 21.7888 4.76851C21.1065 5.45864 20.7232 6.39467 20.7232 7.37066C20.7232 8.34666 21.1065 9.28268 21.7888 9.97282C22.4712 10.663 23.3966 11.0507 24.3616 11.0507C25.3265 11.0507 26.252 10.663 26.9343 9.97282C27.6167 9.28268 28 8.34666 28 7.37066C28 6.39467 27.6167 5.45864 26.9343 4.76851C26.252 4.07838 25.3265 3.69066 24.3616 3.69066ZM5.91243 13.3507C5.91243 13.1458 5.9285 12.9462 5.96064 12.7517L1.6855 13.91C1.10304 14.0681 0.606502 14.4536 0.305087 14.9819C0.00367199 15.5102 -0.0779312 16.1379 0.0782259 16.7271L0.902328 19.8367C1.10125 20.588 1.45491 21.2883 1.94013 21.8917C2.42535 22.4952 3.03117 22.9881 3.71789 23.3381C4.40461 23.6882 5.15672 23.8875 5.92492 23.923C6.69313 23.9586 7.46009 23.8295 8.17552 23.5443C7.68382 23.0978 7.25884 22.5815 6.9139 22.0115C6.00427 22.2026 5.05684 22.0345 4.26583 21.5417C3.47483 21.0488 2.90017 20.2687 2.65968 19.361L1.83558 16.2514C1.82003 16.1931 1.816 16.1322 1.82372 16.0723C1.83144 16.0123 1.85077 15.9545 1.88059 15.9021C1.9104 15.8498 1.95014 15.8039 1.99751 15.767C2.04488 15.7302 2.09897 15.7031 2.15667 15.6875L5.91243 14.6699V13.3507ZM20.4112 23.7402C20.2118 23.6865 20.0156 23.6214 19.8236 23.5452C20.3156 23.0988 20.7409 22.5825 21.0861 22.0125C21.9956 22.203 22.9427 22.0345 23.7333 21.5415C24.5239 21.0485 25.0982 20.2684 25.3385 19.361L26.1617 16.2505C26.1928 16.1328 26.1765 16.0074 26.1163 15.9018C26.0561 15.7962 25.9569 15.7192 25.8406 15.6875L22.0876 14.6699V13.3507C22.0876 13.147 22.0715 12.9477 22.0394 12.7527L26.3118 13.91C26.8942 14.0681 27.3908 14.4536 27.6922 14.9819C27.9936 15.5102 28.0752 16.1379 27.919 16.7271L27.0949 19.8367C26.7204 21.2507 25.8058 22.4564 24.5523 23.1885C23.2989 23.9205 21.8093 24.119 20.4112 23.7402ZM10.8164 11.0507C10.2133 11.0507 9.63487 11.293 9.20842 11.7243C8.78195 12.1557 8.54237 12.7407 8.54237 13.3507V18.4107C8.54237 19.8747 9.11737 21.2787 10.1409 22.3139C11.1644 23.3491 12.5525 23.9307 14 23.9307C15.4475 23.9307 16.8356 23.3491 17.8591 22.3139C18.8826 21.2787 19.4576 19.8747 19.4576 18.4107V13.3507C19.4576 12.7407 19.218 12.1557 18.7916 11.7243C18.3651 11.293 17.7867 11.0507 17.1836 11.0507H10.8164ZM10.3616 13.3507C10.3616 13.2287 10.4095 13.1117 10.4948 13.0254C10.5801 12.9391 10.6958 12.8907 10.8164 12.8907H17.1836C17.3042 12.8907 17.4199 12.9391 17.5052 13.0254C17.5905 13.1117 17.6384 13.2287 17.6384 13.3507V18.4107C17.6384 19.3867 17.2551 20.3227 16.5727 21.0128C15.8904 21.7029 14.965 22.0907 14 22.0907C13.035 22.0907 12.1096 21.7029 11.4272 21.0128C10.7449 20.3227 10.3616 19.3867 10.3616 18.4107V13.3507Z" fill="#8F8F8F"/>
</svg>
