<svg width="22" height="25" viewBox="0 0 22 25" fill="none" xmlns="http://www.w3.org/2000/svg">
    <path d="M4 23.8656H20.3333C20.9777 23.8656 21.5 23.3432 21.5 22.6989C21.5 22.0546 20.9777 21.5322 20.3333 21.5322H4.014C3.475 21.5182 2.83333 21.3047 2.83333 20.3656C2.83333 19.4264 3.475 19.2129 4.014 19.1989H21.5V2.86556C21.5 1.57873 20.4535 0.532227 19.1667 0.532227H4C2.593 0.532227 0.5 1.46439 0.5 4.03223V20.3656C0.5 22.9334 2.593 23.8656 4 23.8656ZM2.83333 7.53223V4.03223C2.83333 3.09306 3.475 2.87956 4 2.86556H19.1667V16.8656H2.83333V7.53223Z" fill="#8F8F8F" stroke="#8F8F8F" stroke-width="0.3"/>
    <path d="M5.83398 6.36589C5.83398 5.72155 6.35632 5.19922 7.00065 5.19922H15.1673C15.8116 5.19922 16.334 5.72155 16.334 6.36589C16.334 7.01022 15.8117 7.53255 15.1673 7.53255H7.00065C6.35632 7.53255 5.83398 7.01022 5.83398 6.36589Z" fill="#8F8F8F" stroke="#8F8F8F" stroke-width="0.3"/>
</svg>
