<svg width="16" height="17" viewBox="0 0 16 17" fill="none" xmlns="http://www.w3.org/2000/svg">
    <path d="M8.00031 13.8332H14.0003M10.9176 2.91449C11.183 2.6491 11.543 2.5 11.9183 2.5C12.2936 2.5 12.6536 2.6491 12.919 2.91449C13.1844 3.17988 13.3335 3.53983 13.3335 3.91516C13.3335 4.29048 13.1844 4.65043 12.919 4.91582L4.91231 12.9232C4.75371 13.0818 4.55766 13.1978 4.34231 13.2605L2.42764 13.8192C2.37028 13.8359 2.30947 13.8369 2.25158 13.8221C2.1937 13.8072 2.14086 13.7771 2.09861 13.7349C2.05635 13.6926 2.02624 13.6398 2.01141 13.5819C1.99658 13.524 1.99758 13.4632 2.01431 13.4058L2.57298 11.4912C2.63579 11.276 2.75181 11.0802 2.91031 10.9218L10.9176 2.91449Z"
          stroke="#505050" stroke-linecap="round" stroke-linejoin="round"/>
</svg>
