<svg width="18" height="18" viewBox="0 0 18 18" fill="none" xmlns="http://www.w3.org/2000/svg">
    <path d="M8.89548 1.24703C9.06903 0.844053 9.6404 0.844054 9.81394 1.24704L11.8429 5.95855C11.9153 6.12664 12.0737 6.24175 12.256 6.25865L17.3639 6.7324C17.8008 6.77292 17.9773 7.31632 17.6477 7.6059L13.7938 10.9915C13.6563 11.1123 13.5958 11.2986 13.636 11.4771L14.7639 16.4814C14.8604 16.9094 14.3981 17.2453 14.0208 17.0213L9.60999 14.4022C9.45263 14.3087 9.25679 14.3087 9.09943 14.4022L4.68858 17.0213C4.31131 17.2453 3.84907 16.9094 3.94554 16.4814L5.07341 11.4771C5.11365 11.2986 5.05313 11.1123 4.91564 10.9915L1.06171 7.6059C0.732077 7.31632 0.908641 6.77292 1.34553 6.7324L6.45344 6.25865C6.63567 6.24175 6.79411 6.12664 6.86649 5.95855L8.89548 1.24703Z" fill="#B6B6B6"/>
</svg>
