<svg width="24" height="29" viewBox="0 0 24 29" fill="none" xmlns="http://www.w3.org/2000/svg">
    <path d="M21.3313 17.9592C20.9298 17.3177 20.7167 16.5762 20.7163 15.8195V10.2158C20.7163 7.90411 19.798 5.68709 18.1634 4.05246C16.5288 2.41783 14.3117 1.49951 12 1.49951C9.68832 1.49951 7.47129 2.41783 5.83666 4.05246C4.20204 5.68709 3.28371 7.90411 3.28371 10.2158V15.8168C3.28382 16.5745 3.07069 17.3169 2.66871 17.9592L1.20455 20.3007C1.07724 20.5045 1.00677 20.7385 1.00046 20.9787C0.994159 21.2188 1.05225 21.4563 1.1687 21.6664C1.28515 21.8765 1.45572 22.0516 1.6627 22.1735C1.86967 22.2954 2.10552 22.3597 2.34574 22.3597H21.6543C21.8945 22.3597 22.1304 22.2954 22.3374 22.1735C22.5443 22.0516 22.7149 21.8765 22.8314 21.6664C22.9478 21.4563 23.0059 21.2188 22.9996 20.9787C22.9933 20.7385 22.9228 20.5045 22.7955 20.3007L21.3313 17.9592Z" stroke="#262932" stroke-width="2" stroke-linecap="round" stroke-linejoin="round"/>
    <path d="M9.30957 27.397H14.6925" stroke="#262932" stroke-width="2" stroke-linecap="round"/>
</svg>
