<svg width="22" height="26" viewBox="0 0 22 26" fill="none" xmlns="http://www.w3.org/2000/svg">
    <path d="M18.1129 0.398438H3.88699C3.02079 0.400853 2.19075 0.746022 1.57825 1.35852C0.965748 1.97102 0.620579 2.80106 0.618164 3.66727V22.1296C0.620579 22.9958 0.965748 23.8259 1.57825 24.4384C2.19075 25.0509 3.02079 25.396 3.88699 25.3984H18.1129C18.9799 25.3984 19.8113 25.054 20.4243 24.441C21.0374 23.828 21.3818 22.9966 21.3818 22.1296V3.66727C21.3818 2.80032 21.0374 1.96888 20.4243 1.35586C19.8113 0.742831 18.9799 0.398438 18.1129 0.398438ZM20.0742 22.1296C20.0742 22.6498 19.8676 23.1486 19.4998 23.5165C19.132 23.8843 18.6331 24.0909 18.1129 24.0909H3.88699C3.36682 24.0909 2.86796 23.8843 2.50015 23.5165C2.13233 23.1486 1.9257 22.6498 1.9257 22.1296V4.07264H20.0742V22.1296Z" fill="#8F8F8F" stroke="#8F8F8F" stroke-width="0.3"/>
    <path d="M5.71 9.68905C5.55252 9.68905 5.40149 9.62106 5.29013 9.50004C5.17877 9.37902 5.11621 9.21489 5.11621 9.04374C5.11621 8.8726 5.17877 8.70846 5.29013 8.58744C5.40149 8.46643 5.55252 8.39844 5.71 8.39844H16.2902C16.4477 8.39844 16.5987 8.46643 16.7101 8.58744C16.8214 8.70846 16.884 8.8726 16.884 9.04374C16.884 9.21489 16.8214 9.37902 16.7101 9.50004C16.5987 9.62106 16.4477 9.68905 16.2902 9.68905H5.71ZM5.71 15.0826C5.55252 15.0826 5.40149 15.0146 5.29013 14.8936C5.17877 14.7726 5.11621 14.6085 5.11621 14.4373C5.11621 14.2662 5.17877 14.102 5.29013 13.981C5.40149 13.86 5.55252 13.792 5.71 13.792H13.4293C13.5868 13.792 13.7378 13.86 13.8492 13.981C13.9605 14.102 14.0231 14.2662 14.0231 14.4373C14.0231 14.6085 13.9605 14.7726 13.8492 14.8936C13.7378 15.0146 13.5868 15.0826 13.4293 15.0826H5.71ZM5.73019 20.1662C5.57271 20.1662 5.42168 20.0982 5.31032 19.9772C5.19896 19.8562 5.1364 19.6921 5.1364 19.5209C5.1364 19.3498 5.19896 19.1856 5.31032 19.0646C5.42168 18.9436 5.57271 18.8756 5.73019 18.8756H9.59103C9.74852 18.8756 9.89955 18.9436 10.0109 19.0646C10.1223 19.1856 10.1848 19.3498 10.1848 19.5209C10.1848 19.6921 10.1223 19.8562 10.0109 19.9772C9.89955 20.0982 9.74852 20.1662 9.59103 20.1662H5.73019Z" fill="#8F8F8F" stroke="#8F8F8F" stroke-width="0.3"/>
</svg>
