<svg width="22" height="22" viewBox="0 0 22 22" fill="none" xmlns="http://www.w3.org/2000/svg">
    <path d="M18.8867 11.5309L20.2427 12.7384C20.4931 12.9474 20.6604 13.2391 20.7144 13.5608C20.7683 13.8824 20.7053 14.2127 20.5367 14.4919L18.9017 17.2849C18.7749 17.4987 18.5937 17.6752 18.3767 17.7964C18.1572 17.9179 17.9106 17.9824 17.6597 17.9839C17.5041 17.9849 17.3492 17.9616 17.2007 17.9149L15.4652 17.3419C15.1612 17.5369 14.8452 17.7114 14.5172 17.8654L14.1527 19.6249C14.0853 19.9486 13.9051 20.2378 13.6442 20.4409C13.3801 20.6477 13.0526 20.7569 12.7172 20.7499H9.33171C8.99633 20.7569 8.66885 20.6477 8.40471 20.4409C8.14443 20.2376 7.96477 19.9484 7.89771 19.6249L7.53171 17.8654C7.20801 17.7094 6.89395 17.5341 6.59121 17.3404L4.84971 17.9149C4.70122 17.9616 4.54637 17.9849 4.39071 17.9839C4.1403 17.9822 3.89432 17.9177 3.67521 17.7964C3.45837 17.6756 3.27727 17.4997 3.15021 17.2864L1.45671 14.4919C1.28066 14.2102 1.21338 13.874 1.26751 13.5462C1.32163 13.2184 1.49343 12.9216 1.75071 12.7114L3.10521 10.9999V10.4689L1.74921 9.26145C1.49881 9.05249 1.3315 8.76078 1.27757 8.43913C1.22364 8.11748 1.28666 7.78715 1.45521 7.50795L3.14871 4.71495C3.27556 4.50115 3.45668 4.32468 3.67371 4.20345C3.89282 4.0822 4.1388 4.01774 4.38921 4.01595C4.54346 4.00621 4.69829 4.02038 4.84821 4.05795L6.55521 4.65795C6.86021 4.46295 7.17621 4.28845 7.50321 4.13445L7.86921 2.37495C7.93627 2.0515 8.11593 1.76234 8.37621 1.55895C8.64035 1.35216 8.96783 1.243 9.30321 1.24995H12.6602C12.9956 1.243 13.3231 1.35216 13.5872 1.55895C13.8497 1.76445 14.0297 2.05395 14.0942 2.37495L14.4602 4.13445C14.7852 4.28945 15.0987 4.46445 15.4007 4.65945L17.1437 4.08645C17.3372 4.02352 17.5416 4.00142 17.744 4.02156C17.9464 4.0417 18.1425 4.10363 18.3197 4.20345C18.5372 4.32645 18.7172 4.50345 18.8447 4.71345L20.5367 7.50795C20.7151 7.78728 20.7858 8.12199 20.7356 8.44962C20.6854 8.77725 20.5176 9.0754 20.2637 9.28845L18.8867 10.4614V11.5309Z" stroke="#262932" stroke-width="1.5"/>
    <path d="M14.75 11C14.75 11.9946 14.3549 12.9484 13.6517 13.6517C12.9484 14.3549 11.9946 14.75 11 14.75C10.0054 14.75 9.05161 14.3549 8.34835 13.6517C7.64509 12.9484 7.25 11.9946 7.25 11C7.25 10.0054 7.64509 9.05161 8.34835 8.34835C9.05161 7.64509 10.0054 7.25 11 7.25C11.9946 7.25 12.9484 7.64509 13.6517 8.34835C14.3549 9.05161 14.75 10.0054 14.75 11Z" stroke="#262932" stroke-width="1.5"/>
</svg>
