<svg width="26" height="22" viewBox="0 0 26 22" fill="none" xmlns="http://www.w3.org/2000/svg">
    <path d="M1.74531 10.869C1.6474 10.6052 1.6474 10.3151 1.74531 10.0513C2.69889 7.73916 4.31754 5.76219 6.39606 4.37107C8.47457 2.97994 10.9193 2.2373 13.4204 2.2373C15.9215 2.2373 18.3663 2.97994 20.4448 4.37107C22.5233 5.76219 24.142 7.73916 25.0956 10.0513C25.1935 10.3151 25.1935 10.6052 25.0956 10.869C24.142 13.1812 22.5233 15.1581 20.4448 16.5493C18.3663 17.9404 15.9215 18.683 13.4204 18.683C10.9193 18.683 8.47457 17.9404 6.39606 16.5493C4.31754 15.1581 2.69889 13.1812 1.74531 10.869Z" stroke="#8F8F8F" stroke-width="1.60761" stroke-linecap="round" stroke-linejoin="round"/>
    <path d="M13.4209 13.9834C15.3673 13.9834 16.9453 12.4054 16.9453 10.459C16.9453 8.51249 15.3673 6.93457 13.4209 6.93457C11.4744 6.93457 9.89648 8.51249 9.89648 10.459C9.89648 12.4054 11.4744 13.9834 13.4209 13.9834Z" stroke="#8F8F8F" stroke-width="1.60761" stroke-linecap="round" stroke-linejoin="round"/>
</svg>
